<svg xmlns="http://www.w3.org/2000/svg" viewBox="0 0 512 512" width="100%" height="100%">
  <defs>
    <linearGradient id="coralLogoGrad" x1="0%" y1="0%" x2="100%" y2="100%">
      <stop offset="0%" stop-color="#EE8C74" />
      <stop offset="100%" stop-color="#E27457" />
    </linearGradient>
  </defs>

  <!-- Orange/Coral Rounded Squircle Base (Official HelpClin Brand) -->
  <rect x="0" y="0" width="512" height="512" rx="140" fill="url(#coralLogoGrad)" />

  <!-- Clean Pure White 'H' Emblem -->
  <path
    d="M 136,140
       A 16,16 0 0,1 152,124
       L 188,124
       A 16,16 0 0,1 204,140
       L 204,224
       L 308,224
       L 308,140
       A 16,16 0 0,1 324,124
       L 360,124
       A 16,16 0 0,1 376,140
       L 376,372
       A 16,16 0 0,1 360,388
       L 324,388
       A 16,16 0 0,1 308,372
       L 308,288
       L 204,288
       L 204,372
       A 16,16 0 0,1 188,388
       L 152,388
       A 16,16 0 0,1 136,372
       Z"
    fill="#FFFFFF"
  />
</svg>
